<?xml version="1.0" encoding="utf-8"?>
<!-- Generator: Adobe Illustrator 25.0.0, SVG Export Plug-In . SVG Version: 6.00 Build 0)  -->
<svg version="1.1" id="Capa_1" xmlns="http://www.w3.org/2000/svg" xmlns:xlink="http://www.w3.org/1999/xlink" x="0px" y="0px"
	 viewBox="0 0 562.7 397.8" style="enable-background:new 0 0 562.7 397.8;" xml:space="preserve">
<style type="text/css">
	.st0{fill:#FFFFFF;}
	.st1{fill-rule:evenodd;clip-rule:evenodd;fill:#F8991D;}
	.st2{fill:#2996D3;}
	.st3{fill:#F8991D;}
</style>
<g>
	<path class="st0" d="M9.2,345.7v-33.1h22.3v3.9H13.6v10.3h15.5v3.9H13.6v15H9.2L9.2,345.7z M34.1,333.7c0-4.4,1.2-7.7,3.7-9.9
		c2.1-1.8,4.6-2.7,7.5-2.7c3.3,0,6,1.1,8.1,3.2c2.1,2.2,3.1,5.1,3.1,8.9c0,3.1-0.5,5.5-1.4,7.3c-0.9,1.8-2.3,3.1-4,4.1
		c-1.8,1-3.7,1.5-5.8,1.5c-3.3,0-6.1-1.1-8.1-3.2C35.1,340.9,34.1,337.8,34.1,333.7L34.1,333.7z M38.3,333.7c0,3.1,0.7,5.4,2,6.9
		c1.3,1.5,3,2.3,5,2.3c2,0,3.7-0.8,5-2.3c1.3-1.6,2-3.9,2-7c0-3-0.7-5.2-2-6.7c-1.3-1.5-3-2.3-5-2.3c-2,0-3.7,0.8-5,2.3
		C39,328.4,38.3,330.6,38.3,333.7L38.3,333.7z M60.3,345.7v-23.9h3.6v3.4c1.8-2.6,4.3-3.9,7.6-3.9c1.4,0,2.8,0.2,4,0.8
		c1.2,0.5,2.1,1.2,2.7,2.1c0.6,0.8,1,1.8,1.3,3c0.1,0.8,0.2,2.1,0.2,4v14.7h-4.1v-14.6c0-1.7-0.2-2.9-0.5-3.7
		c-0.3-0.8-0.9-1.5-1.7-2c-0.8-0.5-1.7-0.7-2.8-0.7c-1.8,0-3.2,0.5-4.5,1.6c-1.2,1.1-1.9,3.2-1.9,6.3v13.1H60.3L60.3,345.7z
		 M100.5,345.7v-3c-1.5,2.4-3.8,3.6-6.7,3.6c-1.9,0-3.7-0.5-5.3-1.6c-1.6-1.1-2.8-2.5-3.7-4.4c-0.9-1.9-1.3-4-1.3-6.5
		c0-2.4,0.4-4.6,1.2-6.5c0.8-2,2-3.5,3.6-4.5c1.6-1,3.4-1.6,5.3-1.6c1.4,0,2.7,0.3,3.9,0.9c1.1,0.6,2,1.4,2.8,2.4v-11.9h4v33.1
		H100.5L100.5,345.7z M87.7,333.7c0,3.1,0.6,5.4,1.9,6.9c1.3,1.5,2.8,2.3,4.6,2.3c1.8,0,3.3-0.7,4.5-2.2c1.2-1.4,1.9-3.7,1.9-6.7
		c0-3.3-0.6-5.7-1.9-7.2c-1.3-1.5-2.8-2.3-4.7-2.3c-1.8,0-3.3,0.8-4.5,2.2C88.3,328.2,87.7,330.6,87.7,333.7L87.7,333.7z
		 M108.1,333.7c0-4.4,1.2-7.7,3.7-9.9c2.1-1.8,4.6-2.7,7.5-2.7c3.3,0,6,1.1,8.1,3.2c2.1,2.2,3.1,5.1,3.1,8.9c0,3.1-0.5,5.5-1.4,7.3
		c-0.9,1.8-2.3,3.1-4,4.1c-1.8,1-3.7,1.5-5.8,1.5c-3.4,0-6.1-1.1-8.1-3.2C109.1,340.9,108.1,337.8,108.1,333.7L108.1,333.7z
		 M112.3,333.7c0,3.1,0.7,5.4,2,6.9c1.3,1.5,3,2.3,5.1,2.3c2,0,3.7-0.8,5-2.3c1.3-1.6,2-3.9,2-7c0-3-0.7-5.2-2-6.7
		c-1.4-1.5-3-2.3-5-2.3c-2,0-3.7,0.8-5.1,2.3C112.9,328.4,112.3,330.6,112.3,333.7L112.3,333.7z M163.7,345.7v-3
		c-1.5,2.4-3.7,3.6-6.7,3.6c-1.9,0-3.7-0.5-5.3-1.6c-1.6-1.1-2.8-2.5-3.7-4.4c-0.9-1.9-1.3-4-1.3-6.5c0-2.4,0.4-4.6,1.2-6.5
		c0.8-2,2-3.5,3.6-4.5c1.6-1,3.4-1.6,5.3-1.6c1.4,0,2.7,0.3,3.9,0.9c1.1,0.6,2,1.4,2.7,2.4v-11.9h4v33.1H163.7L163.7,345.7z
		 M150.8,333.7c0,3.1,0.7,5.4,1.9,6.9c1.3,1.5,2.8,2.3,4.6,2.3c1.8,0,3.3-0.7,4.5-2.2c1.2-1.4,1.9-3.7,1.9-6.7
		c0-3.3-0.6-5.7-1.9-7.2c-1.3-1.5-2.8-2.3-4.7-2.3c-1.8,0-3.3,0.8-4.5,2.2C151.4,328.2,150.8,330.6,150.8,333.7L150.8,333.7z
		 M189.2,338l4.2,0.5c-0.7,2.5-1.9,4.4-3.7,5.7c-1.8,1.3-4.1,2-6.8,2c-3.5,0-6.3-1.1-8.3-3.2c-2.1-2.2-3.1-5.2-3.1-9.1
		c0-4,1-7.2,3.1-9.4c2.1-2.2,4.8-3.3,8.1-3.3c3.2,0,5.8,1.1,7.8,3.3c2,2.2,3,5.2,3,9.2c0,0.3,0,0.6,0,1.1h-17.9
		c0.1,2.6,0.9,4.6,2.2,6c1.3,1.4,3,2.1,5,2.1c1.5,0,2.7-0.4,3.8-1.2C187.7,340.9,188.6,339.7,189.2,338L189.2,338z M175.8,331.4
		h13.4c-0.2-2-0.7-3.5-1.5-4.5c-1.3-1.6-3-2.3-5-2.3c-1.9,0-3.4,0.6-4.7,1.9C176.7,327.7,176,329.3,175.8,331.4L175.8,331.4z
		 M211.8,345.7v-33.1h12.5c2.2,0,3.9,0.1,5,0.3c1.6,0.3,3,0.8,4.1,1.6c1.1,0.7,2,1.8,2.7,3.2c0.7,1.4,1,2.9,1,4.5
		c0,2.8-0.9,5.2-2.7,7.1c-1.8,1.9-5,2.9-9.7,2.9h-8.5v13.4H211.8L211.8,345.7z M216.2,328.4h8.6c2.8,0,4.8-0.5,6-1.6
		c1.2-1.1,1.8-2.6,1.8-4.5c0-1.4-0.3-2.6-1-3.5c-0.7-1-1.6-1.6-2.8-2c-0.7-0.2-2.1-0.3-4.1-0.3h-8.5V328.4L216.2,328.4z
		 M239.5,333.7c0-4.4,1.2-7.7,3.7-9.9c2.1-1.8,4.6-2.7,7.5-2.7c3.3,0,6,1.1,8.1,3.2c2.1,2.2,3.1,5.1,3.1,8.9c0,3.1-0.5,5.5-1.4,7.3
		c-0.9,1.8-2.3,3.1-4,4.1c-1.8,1-3.7,1.5-5.8,1.5c-3.3,0-6.1-1.1-8.1-3.2C240.6,340.9,239.5,337.8,239.5,333.7L239.5,333.7z
		 M243.7,333.7c0,3.1,0.7,5.4,2,6.9c1.3,1.5,3,2.3,5,2.3c2,0,3.7-0.8,5-2.3c1.3-1.6,2-3.9,2-7c0-3-0.7-5.2-2-6.7
		c-1.3-1.5-3-2.3-5-2.3c-2,0-3.7,0.8-5,2.3C244.4,328.4,243.7,330.6,243.7,333.7L243.7,333.7z M269.5,345.7h-3.8v-33.1h4.1v11.8
		c1.7-2.1,3.9-3.2,6.6-3.2c1.5,0,2.9,0.3,4.2,0.9c1.3,0.6,2.4,1.4,3.3,2.5c0.8,1.1,1.5,2.4,2,3.9c0.5,1.5,0.7,3.1,0.7,4.9
		c0,4.1-1,7.3-3,9.5c-2,2.2-4.5,3.3-7.3,3.3c-2.8,0-5-1.2-6.7-3.5V345.7L269.5,345.7z M269.4,333.5c0,2.9,0.4,4.9,1.2,6.2
		c1.3,2.1,3,3.1,5.2,3.1c1.8,0,3.3-0.8,4.6-2.3c1.3-1.6,1.9-3.9,1.9-6.9c0-3.1-0.6-5.4-1.9-6.9c-1.2-1.5-2.7-2.2-4.5-2.2
		c-1.8,0-3.3,0.8-4.6,2.3C270.1,328.4,269.4,330.6,269.4,333.5L269.4,333.5z M290.3,345.7v-33.1h4.1v33.1H290.3L290.3,345.7z
		 M315.2,342.7c-1.5,1.3-3,2.2-4.3,2.7c-1.4,0.5-2.9,0.8-4.5,0.8c-2.6,0-4.7-0.6-6.1-1.9c-1.4-1.3-2.1-2.9-2.1-4.9
		c0-1.2,0.2-2.3,0.8-3.2c0.5-1,1.2-1.8,2.1-2.4c0.9-0.6,1.8-1,2.9-1.3c0.8-0.2,2-0.4,3.6-0.6c3.3-0.4,5.7-0.9,7.2-1.4
		c0-0.6,0-0.9,0-1c0-1.7-0.4-2.8-1.1-3.5c-1-0.9-2.6-1.4-4.6-1.4c-1.9,0-3.3,0.3-4.2,1c-0.9,0.7-1.6,1.8-2,3.6l-3.9-0.5
		c0.4-1.7,0.9-3.1,1.8-4.1c0.8-1.1,2-1.9,3.6-2.4c1.6-0.6,3.4-0.8,5.4-0.8c2,0,3.7,0.2,5,0.7c1.3,0.5,2.2,1.1,2.8,1.8
		c0.6,0.7,1,1.7,1.3,2.8c0.1,0.7,0.2,1.9,0.2,3.7v5.4c0,3.8,0.1,6.2,0.3,7.2c0.2,1,0.5,1.9,1,2.9H316
		C315.6,344.9,315.4,343.9,315.2,342.7L315.2,342.7z M314.9,333.7c-1.5,0.6-3.7,1.1-6.6,1.5c-1.7,0.2-2.9,0.5-3.5,0.8
		c-0.7,0.3-1.2,0.7-1.6,1.3c-0.4,0.6-0.6,1.2-0.6,1.9c0,1.1,0.4,2,1.2,2.7c0.8,0.7,2,1.1,3.6,1.1c1.6,0,3-0.4,4.2-1
		c1.2-0.7,2.1-1.6,2.7-2.8c0.4-0.9,0.7-2.3,0.7-4.1V333.7L314.9,333.7z M339.9,336.9l4,0.5c-0.4,2.8-1.5,4.9-3.4,6.5
		c-1.8,1.6-4,2.3-6.6,2.3c-3.3,0-5.9-1.1-7.9-3.2c-2-2.1-3-5.2-3-9.2c0-2.6,0.4-4.9,1.3-6.8c0.9-1.9,2.2-3.4,3.9-4.3
		c1.7-1,3.6-1.4,5.7-1.4c2.6,0,4.7,0.6,6.4,2c1.7,1.3,2.7,3.2,3.2,5.6l-4,0.6c-0.4-1.6-1-2.8-2-3.6c-1-0.8-2.1-1.2-3.5-1.2
		c-2.1,0-3.7,0.7-5,2.2c-1.3,1.5-1.9,3.8-1.9,6.9c0,3.2,0.6,5.6,1.9,7c1.2,1.4,2.8,2.2,4.8,2.2c1.6,0,2.9-0.5,4-1.5
		C338.9,340.5,339.6,338.9,339.9,336.9L339.9,336.9z M346.4,317.3v-4.7h4.1v4.7H346.4L346.4,317.3z M346.4,345.7v-23.9h4.1v23.9
		H346.4L346.4,345.7z M354.1,333.7c0-4.4,1.2-7.7,3.7-9.9c2.1-1.8,4.6-2.7,7.5-2.7c3.3,0,6,1.1,8.1,3.2c2.1,2.2,3.1,5.1,3.1,8.9
		c0,3.1-0.5,5.5-1.4,7.3c-0.9,1.8-2.3,3.1-4,4.1c-1.8,1-3.7,1.5-5.8,1.5c-3.4,0-6.1-1.1-8.1-3.2
		C355.1,340.9,354.1,337.8,354.1,333.7L354.1,333.7z M358.2,333.7c0,3.1,0.7,5.4,2,6.9c1.3,1.5,3,2.3,5.1,2.3c2,0,3.7-0.8,5-2.3
		c1.3-1.6,2-3.9,2-7c0-3-0.7-5.2-2-6.7c-1.3-1.5-3-2.3-5-2.3c-2,0-3.7,0.8-5.1,2.3C358.9,328.4,358.2,330.6,358.2,333.7L358.2,333.7
		z M363,318.8l3-6.3h5.3l-5,6.3H363L363,318.8z M380.2,345.7v-23.9h3.6v3.4c1.8-2.6,4.3-3.9,7.6-3.9c1.4,0,2.8,0.2,4,0.8
		c1.2,0.5,2.1,1.2,2.7,2.1c0.6,0.8,1,1.8,1.3,3c0.1,0.8,0.2,2.1,0.2,4v14.7h-4.1v-14.6c0-1.7-0.1-2.9-0.5-3.7
		c-0.3-0.8-0.9-1.5-1.7-2c-0.8-0.5-1.7-0.7-2.8-0.7c-1.7,0-3.2,0.5-4.5,1.6c-1.2,1.1-1.9,3.2-1.9,6.3v13.1H380.2L380.2,345.7z
		 M24,397.3v-3c-1.5,2.4-3.8,3.6-6.7,3.6c-1.9,0-3.7-0.6-5.3-1.6c-1.6-1-2.8-2.5-3.7-4.4c-0.9-1.9-1.3-4-1.3-6.5
		c0-2.4,0.4-4.6,1.2-6.5c0.8-1.9,2-3.4,3.6-4.5c1.6-1,3.4-1.6,5.3-1.6c1.4,0,2.7,0.3,3.8,0.9c1.1,0.6,2,1.4,2.8,2.4v-11.9h4v33.1H24
		L24,397.3z M11.2,385.3c0,3.1,0.7,5.4,1.9,6.9c1.3,1.5,2.8,2.3,4.6,2.3c1.8,0,3.3-0.7,4.5-2.2c1.2-1.4,1.9-3.6,1.9-6.6
		c0-3.3-0.6-5.7-1.9-7.2c-1.3-1.5-2.8-2.3-4.7-2.3c-1.8,0-3.3,0.7-4.5,2.2C11.8,379.8,11.2,382.2,11.2,385.3L11.2,385.3z
		 M50.5,389.6l4.2,0.5c-0.7,2.5-1.9,4.3-3.7,5.7c-1.8,1.3-4.1,2-6.9,2c-3.5,0-6.3-1.1-8.3-3.2c-2-2.2-3.1-5.2-3.1-9.1
		c0-4,1-7.1,3.1-9.4c2.1-2.2,4.8-3.3,8.1-3.3c3.2,0,5.8,1.1,7.8,3.2c2,2.2,3.1,5.3,3.1,9.2c0,0.2,0,0.6,0,1.1H37
		c0.1,2.6,0.9,4.7,2.2,6.1c1.3,1.4,3,2.1,5,2.1c1.5,0,2.8-0.4,3.8-1.2C49.1,392.5,49.9,391.3,50.5,389.6L50.5,389.6z M37.2,383h13.4
		c-0.2-2-0.7-3.5-1.5-4.5c-1.3-1.6-3-2.4-5-2.4c-1.9,0-3.4,0.6-4.7,1.9C38,379.3,37.3,380.9,37.2,383L37.2,383z M72.6,397.3v-33.1
		h4.1v33.1H72.6L72.6,397.3z M98.5,394.3c-1.5,1.3-3,2.2-4.3,2.7c-1.4,0.5-2.9,0.8-4.5,0.8c-2.6,0-4.6-0.7-6.1-1.9
		c-1.4-1.3-2.1-2.9-2.1-4.9c0-1.2,0.3-2.2,0.8-3.2c0.5-1,1.2-1.7,2.1-2.3c0.9-0.6,1.8-1,2.9-1.3c0.8-0.2,2-0.4,3.6-0.6
		c3.3-0.4,5.7-0.8,7.2-1.4c0-0.6,0-0.9,0-1.1c0-1.7-0.4-2.8-1.1-3.5c-1-0.9-2.6-1.4-4.6-1.4c-1.9,0-3.3,0.3-4.2,1
		c-0.9,0.7-1.6,1.9-2,3.5l-4-0.5c0.4-1.7,1-3.1,1.8-4.1c0.8-1,2-1.8,3.6-2.4c1.6-0.6,3.4-0.9,5.4-0.9c2,0,3.7,0.2,5,0.7
		c1.3,0.5,2.2,1.1,2.8,1.8c0.6,0.7,1,1.7,1.3,2.8c0.1,0.7,0.2,1.9,0.2,3.7v5.4c0,3.8,0.1,6.1,0.3,7.2c0.2,1,0.5,2,1,2.9h-4.2
		C98.9,396.4,98.6,395.5,98.5,394.3L98.5,394.3z M98.2,385.3c-1.5,0.6-3.7,1.1-6.6,1.5c-1.7,0.2-2.9,0.5-3.5,0.8
		c-0.7,0.3-1.2,0.7-1.6,1.3c-0.4,0.6-0.6,1.2-0.6,1.9c0,1.1,0.4,2,1.2,2.7c0.8,0.7,2,1.1,3.6,1.1c1.6,0,3-0.4,4.2-1
		c1.2-0.7,2.1-1.6,2.7-2.8c0.4-0.9,0.7-2.3,0.7-4V385.3L98.2,385.3z M107,390.1l4-0.6c0.2,1.6,0.8,2.8,1.9,3.7
		c1,0.8,2.5,1.3,4.3,1.3c1.9,0,3.2-0.4,4.1-1.1c0.9-0.8,1.4-1.7,1.4-2.7c0-0.9-0.4-1.6-1.2-2.2c-0.5-0.4-1.9-0.8-4.1-1.4
		c-3-0.8-5-1.4-6.2-2c-1.2-0.5-2-1.3-2.6-2.3c-0.6-1-0.9-2-0.9-3.2c0-1.1,0.3-2.1,0.7-3c0.5-0.9,1.2-1.7,2-2.3
		c0.6-0.5,1.5-0.9,2.6-1.2c1.1-0.3,2.3-0.5,3.5-0.5c1.9,0,3.5,0.3,5,0.8c1.4,0.5,2.5,1.3,3.1,2.2c0.7,0.9,1.1,2.2,1.4,3.7l-4,0.5
		c-0.2-1.2-0.7-2.2-1.6-2.9c-0.9-0.7-2.1-1.1-3.7-1.1c-1.9,0-3.2,0.3-4,0.9c-0.8,0.6-1.2,1.3-1.2,2.2c0,0.5,0.2,1,0.5,1.4
		c0.3,0.4,0.8,0.8,1.6,1.1c0.4,0.1,1.6,0.5,3.6,1c2.9,0.8,4.9,1.4,6,1.9c1.1,0.5,2,1.2,2.7,2.1c0.6,0.9,1,2.1,1,3.5
		c0,1.4-0.4,2.6-1.2,3.8c-0.8,1.2-1.9,2.1-3.4,2.8c-1.5,0.7-3.2,1-5,1c-3.1,0-5.5-0.7-7.1-1.9C108.4,394.6,107.4,392.7,107,390.1
		L107,390.1z M145,397.3v-33.1h4.5l17.4,25.9v-25.9h4.2v33.1h-4.5l-17.4-26v26H145L145,397.3z M193.5,394.3c-1.5,1.3-3,2.2-4.3,2.7
		c-1.4,0.5-2.9,0.8-4.5,0.8c-2.6,0-4.6-0.7-6.1-1.9c-1.4-1.3-2.1-2.9-2.1-4.9c0-1.2,0.2-2.2,0.8-3.2c0.5-1,1.2-1.7,2.1-2.3
		c0.9-0.6,1.8-1,2.9-1.3c0.8-0.2,2-0.4,3.6-0.6c3.3-0.4,5.7-0.8,7.3-1.4c0-0.6,0-0.9,0-1.1c0-1.7-0.4-2.8-1.2-3.5
		c-1-0.9-2.6-1.4-4.6-1.4c-1.9,0-3.3,0.3-4.2,1c-0.9,0.7-1.6,1.9-2,3.5l-4-0.5c0.4-1.7,0.9-3.1,1.8-4.1c0.8-1,2-1.8,3.6-2.4
		c1.6-0.6,3.4-0.9,5.4-0.9c2,0,3.7,0.2,5,0.7c1.3,0.5,2.2,1.1,2.8,1.8c0.6,0.7,1,1.7,1.3,2.8c0.1,0.7,0.2,1.9,0.2,3.7v5.4
		c0,3.8,0.1,6.1,0.3,7.2c0.2,1,0.5,2,1,2.9h-4.3C193.9,396.4,193.6,395.5,193.5,394.3L193.5,394.3z M193.1,385.3
		c-1.5,0.6-3.7,1.1-6.6,1.5c-1.7,0.2-2.9,0.5-3.5,0.8c-0.7,0.3-1.2,0.7-1.6,1.3c-0.4,0.6-0.6,1.2-0.6,1.9c0,1.1,0.4,2,1.2,2.7
		c0.8,0.7,2,1.1,3.6,1.1c1.6,0,3-0.4,4.2-1c1.2-0.7,2.1-1.6,2.7-2.8c0.4-0.9,0.7-2.3,0.7-4V385.3L193.1,385.3z M219.2,388.5l4,0.5
		c-0.4,2.7-1.5,4.9-3.4,6.5c-1.8,1.6-4,2.3-6.6,2.3c-3.3,0-5.9-1.1-7.9-3.2c-2-2.1-3-5.2-3-9.2c0-2.6,0.4-4.8,1.3-6.8
		c0.9-1.9,2.2-3.4,3.9-4.3c1.8-1,3.7-1.5,5.7-1.5c2.6,0,4.7,0.7,6.4,2c1.7,1.3,2.7,3.2,3.2,5.6l-4,0.6c-0.4-1.6-1-2.8-2-3.6
		c-1-0.8-2.1-1.2-3.5-1.2c-2.1,0-3.7,0.8-5,2.2c-1.3,1.4-1.9,3.8-1.9,6.9c0,3.2,0.6,5.6,1.9,7c1.2,1.5,2.8,2.2,4.8,2.2
		c1.6,0,2.9-0.5,4-1.4C218.2,392,218.9,390.5,219.2,388.5L219.2,388.5z M226.6,368.9v-4.7h4.1v4.7H226.6L226.6,368.9z M226.6,397.3
		v-24h4.1v24H226.6L226.6,397.3z M235.4,385.3c0-4.4,1.2-7.7,3.7-9.8c2.1-1.8,4.6-2.7,7.5-2.7c3.3,0,6,1.1,8.1,3.2
		c2.1,2.1,3.1,5.1,3.1,8.9c0,3.1-0.5,5.5-1.4,7.3c-0.9,1.8-2.3,3.1-4,4.1c-1.8,1-3.7,1.5-5.8,1.5c-3.3,0-6.1-1.1-8.1-3.2
		C236.4,392.5,235.4,389.4,235.4,385.3L235.4,385.3z M239.5,385.3c0,3.1,0.7,5.4,2,6.9c1.3,1.5,3,2.3,5,2.3c2,0,3.7-0.8,5-2.3
		c1.3-1.5,2-3.9,2-7c0-2.9-0.7-5.2-2-6.7c-1.3-1.5-3-2.3-5-2.3c-2,0-3.7,0.8-5,2.3C240.2,380,239.5,382.2,239.5,385.3L239.5,385.3z
		 M262.6,397.3v-24h3.6v3.4c1.8-2.6,4.3-3.9,7.6-3.9c1.4,0,2.8,0.3,4,0.8c1.2,0.5,2.1,1.2,2.7,2c0.6,0.9,1,1.9,1.3,3
		c0.1,0.8,0.2,2.1,0.2,4v14.7H278v-14.6c0-1.6-0.2-2.9-0.5-3.7c-0.3-0.8-0.9-1.5-1.7-1.9c-0.8-0.5-1.8-0.8-2.8-0.8
		c-1.8,0-3.2,0.6-4.5,1.7c-1.3,1.1-1.9,3.2-1.9,6.2v13.1H262.6L262.6,397.3z M304.6,389.6l4.2,0.5c-0.7,2.5-1.9,4.3-3.7,5.7
		c-1.8,1.3-4.1,2-6.9,2c-3.5,0-6.3-1.1-8.3-3.2c-2.1-2.2-3.1-5.2-3.1-9.1c0-4,1-7.1,3.1-9.4c2.1-2.2,4.8-3.3,8.1-3.3
		c3.2,0,5.8,1.1,7.8,3.2c2,2.2,3,5.3,3,9.2c0,0.2,0,0.6,0,1.1h-17.9c0.1,2.6,0.9,4.7,2.2,6.1c1.3,1.4,3,2.1,5,2.1
		c1.5,0,2.8-0.4,3.8-1.2C303.2,392.5,304,391.3,304.6,389.6L304.6,389.6z M291.3,383h13.4c-0.2-2-0.7-3.5-1.5-4.5
		c-1.3-1.6-3-2.4-5-2.4c-1.9,0-3.4,0.6-4.7,1.9C292.2,379.3,291.5,380.9,291.3,383L291.3,383z M312.3,390.1l4-0.6
		c0.2,1.6,0.9,2.8,1.9,3.7c1,0.8,2.5,1.3,4.3,1.3c1.9,0,3.3-0.4,4.1-1.1c0.9-0.8,1.4-1.7,1.4-2.7c0-0.9-0.4-1.6-1.2-2.2
		c-0.6-0.4-1.9-0.8-4.1-1.4c-3-0.8-5-1.4-6.2-2c-1.1-0.5-2-1.3-2.6-2.3c-0.6-1-0.9-2-0.9-3.2c0-1.1,0.2-2.1,0.7-3
		c0.5-0.9,1.2-1.7,2-2.3c0.6-0.5,1.5-0.9,2.6-1.2c1.1-0.3,2.3-0.5,3.5-0.5c1.9,0,3.5,0.3,5,0.8c1.4,0.5,2.5,1.3,3.1,2.2
		c0.7,0.9,1.1,2.2,1.4,3.7l-4,0.5c-0.2-1.2-0.7-2.2-1.6-2.9c-0.9-0.7-2.1-1.1-3.7-1.1c-1.9,0-3.2,0.3-4,0.9
		c-0.8,0.6-1.2,1.3-1.2,2.2c0,0.5,0.2,1,0.5,1.4c0.3,0.4,0.8,0.8,1.6,1.1c0.4,0.1,1.6,0.5,3.6,1c2.9,0.8,4.9,1.4,6,1.9
		c1.1,0.5,2,1.2,2.7,2.1c0.6,0.9,1,2.1,1,3.5c0,1.4-0.4,2.6-1.2,3.8c-0.8,1.2-1.9,2.1-3.4,2.8c-1.5,0.7-3.2,1-5.1,1
		c-3.1,0-5.5-0.7-7.1-1.9C313.8,394.6,312.8,392.7,312.3,390.1L312.3,390.1z M372.1,364.2h4.4v19.1c0,3.3-0.4,6-1.1,7.9
		c-0.8,1.9-2.1,3.6-4.1,4.8c-2,1.2-4.5,1.8-7.7,1.8c-3.1,0-5.6-0.5-7.6-1.6c-2-1.1-3.4-2.6-4.2-4.6c-0.8-2-1.3-4.8-1.3-8.3v-19.1
		h4.4v19.1c0,2.9,0.3,5,0.8,6.3c0.5,1.4,1.5,2.4,2.8,3.2c1.3,0.7,2.9,1.1,4.8,1.1c3.2,0,5.5-0.7,6.9-2.2c1.4-1.4,2-4.3,2-8.4V364.2
		L372.1,364.2z M383.2,397.3v-24h3.6v3.4c1.8-2.6,4.3-3.9,7.6-3.9c1.4,0,2.8,0.3,4,0.8c1.2,0.5,2.1,1.2,2.7,2c0.6,0.9,1,1.9,1.3,3
		c0.2,0.8,0.2,2.1,0.2,4v14.7h-4.1v-14.6c0-1.6-0.2-2.9-0.5-3.7c-0.3-0.8-0.9-1.5-1.7-1.9c-0.8-0.5-1.8-0.8-2.8-0.8
		c-1.7,0-3.2,0.6-4.5,1.7c-1.3,1.1-1.9,3.2-1.9,6.2v13.1H383.2L383.2,397.3z M408.9,368.9v-4.7h4.1v4.7H408.9L408.9,368.9z
		 M408.9,397.3v-24h4.1v24H408.9L408.9,397.3z M434.7,397.3v-3c-1.5,2.4-3.7,3.6-6.7,3.6c-1.9,0-3.7-0.6-5.3-1.6
		c-1.6-1-2.8-2.5-3.7-4.4c-0.9-1.9-1.3-4-1.3-6.5c0-2.4,0.4-4.6,1.2-6.5c0.8-1.9,2-3.4,3.6-4.5c1.6-1,3.4-1.6,5.4-1.6
		c1.4,0,2.7,0.3,3.8,0.9c1.1,0.6,2.1,1.4,2.8,2.4v-11.9h4v33.1H434.7L434.7,397.3z M421.8,385.3c0,3.1,0.7,5.4,1.9,6.9
		c1.3,1.5,2.8,2.3,4.6,2.3c1.8,0,3.3-0.7,4.5-2.2c1.2-1.4,1.9-3.6,1.9-6.6c0-3.3-0.6-5.7-1.9-7.2c-1.3-1.5-2.8-2.3-4.7-2.3
		c-1.8,0-3.3,0.7-4.5,2.2C422.4,379.8,421.8,382.2,421.8,385.3L421.8,385.3z"/>
	<path class="st0" d="M460.5,394.3c-1.5,1.3-3,2.2-4.3,2.7c-1.4,0.5-2.9,0.8-4.5,0.8c-2.6,0-4.7-0.7-6.1-1.9
		c-1.4-1.3-2.1-2.9-2.1-4.9c0-1.2,0.3-2.2,0.8-3.2c0.5-1,1.2-1.7,2.1-2.3c0.9-0.6,1.8-1,2.9-1.3c0.8-0.2,2-0.4,3.6-0.6
		c3.3-0.4,5.7-0.8,7.3-1.4c0-0.6,0-0.9,0-1.1c0-1.7-0.4-2.8-1.1-3.5c-1-0.9-2.6-1.4-4.6-1.4c-1.9,0-3.3,0.3-4.2,1
		c-0.9,0.7-1.6,1.9-2,3.5l-4-0.5c0.4-1.7,1-3.1,1.8-4.1c0.8-1,2-1.8,3.6-2.4c1.6-0.6,3.4-0.9,5.4-0.9c2,0,3.7,0.2,5,0.7
		c1.3,0.5,2.2,1.1,2.8,1.8c0.6,0.7,1,1.7,1.2,2.8c0.1,0.7,0.2,1.9,0.2,3.7v5.4c0,3.8,0.1,6.1,0.3,7.2c0.2,1,0.5,2,1,2.9h-4.2
		C460.8,396.4,460.6,395.5,460.5,394.3L460.5,394.3z M460.1,385.3c-1.5,0.6-3.7,1.1-6.6,1.5c-1.7,0.2-2.9,0.5-3.5,0.8
		c-0.7,0.3-1.2,0.7-1.6,1.3c-0.4,0.6-0.6,1.2-0.6,1.9c0,1.1,0.4,2,1.2,2.7c0.8,0.7,2,1.1,3.6,1.1c1.6,0,3-0.4,4.2-1
		c1.2-0.7,2.1-1.6,2.7-2.8c0.4-0.9,0.7-2.3,0.7-4V385.3L460.1,385.3z M468.9,390.1l4-0.6c0.2,1.6,0.9,2.8,1.9,3.7
		c1,0.8,2.5,1.3,4.3,1.3c1.9,0,3.2-0.4,4.1-1.1c0.9-0.8,1.4-1.7,1.4-2.7c0-0.9-0.4-1.6-1.2-2.2c-0.5-0.4-1.9-0.8-4.1-1.4
		c-3-0.8-5-1.4-6.2-2c-1.1-0.5-2-1.3-2.6-2.3c-0.6-1-0.9-2-0.9-3.2c0-1.1,0.2-2.1,0.7-3c0.5-0.9,1.2-1.7,2-2.3
		c0.6-0.5,1.5-0.9,2.6-1.2c1.1-0.3,2.3-0.5,3.5-0.5c1.9,0,3.5,0.3,4.9,0.8c1.4,0.5,2.5,1.3,3.2,2.2c0.7,0.9,1.1,2.2,1.4,3.7l-4,0.5
		c-0.2-1.2-0.7-2.2-1.6-2.9c-0.9-0.7-2.1-1.1-3.7-1.1c-1.9,0-3.2,0.3-4,0.9c-0.8,0.6-1.2,1.3-1.2,2.2c0,0.5,0.2,1,0.5,1.4
		c0.3,0.4,0.8,0.8,1.6,1.1c0.4,0.1,1.6,0.5,3.6,1c2.9,0.8,4.9,1.4,6,1.9c1.1,0.5,2,1.2,2.7,2.1c0.6,0.9,1,2.1,1,3.5
		c0,1.4-0.4,2.6-1.2,3.8c-0.8,1.2-1.9,2.1-3.4,2.8c-1.5,0.7-3.2,1-5.1,1c-3.1,0-5.5-0.7-7.1-1.9
		C470.4,394.6,469.3,392.7,468.9,390.1L468.9,390.1z"/>
	<path class="st1" d="M28.9,0.6c15.9,0,28.9,12.9,28.9,28.9S44.8,58.3,28.9,58.3C12.9,58.3,0,45.4,0,29.5S12.9,0.6,28.9,0.6
		L28.9,0.6z"/>
	<path class="st1" d="M131.7,0.6c15.9,0,28.9,12.9,28.9,28.9s-12.9,28.9-28.9,28.9c-15.9,0-28.9-12.9-28.9-28.9S115.7,0.6,131.7,0.6
		L131.7,0.6z"/>
	<path class="st1" d="M237,0.6c15.9,0,28.9,12.9,28.9,28.9S253,58.3,237,58.3c-15.9,0-28.9-12.9-28.9-28.9S221.1,0.6,237,0.6
		L237,0.6z"/>
	<path class="st1" d="M28.9,202.3c15.9,0,28.9,12.9,28.9,28.8c0,16-12.9,28.9-28.9,28.9C12.9,260,0,247.1,0,231.1
		C0,215.2,12.9,202.3,28.9,202.3L28.9,202.3z"/>
	<path class="st1" d="M131.7,202.3c15.9,0,28.9,12.9,28.9,28.8c0,16-12.9,28.9-28.9,28.9c-15.9,0-28.9-12.9-28.9-28.9
		C102.8,215.2,115.7,202.3,131.7,202.3L131.7,202.3z"/>
	<path class="st1" d="M237,202.3c15.9,0,28.9,12.9,28.9,28.8c0,16-12.9,28.9-28.9,28.9c-15.9,0-28.9-12.9-28.9-28.9
		C208.2,215.2,221.1,202.3,237,202.3L237,202.3z"/>
	<path class="st1" d="M28.9,101.3c15.9,0,28.9,12.9,28.9,28.8c0,16-12.9,28.9-28.9,28.9C12.9,159,0,146.1,0,130.1
		C0,114.2,12.9,101.3,28.9,101.3L28.9,101.3z"/>
	<path class="st1" d="M131.7,101.3c15.9,0,28.9,12.9,28.9,28.8c0,16-12.9,28.9-28.9,28.9c-15.9,0-28.9-12.9-28.9-28.9
		C102.8,114.2,115.7,101.3,131.7,101.3L131.7,101.3z"/>
	<path class="st2" d="M258.5,169.3c-6.2-2.8-13.3-5.9-20.5-3.3c-3.6-1.2-8.4-1.2-12,0c-6.3,2.9-15,7.2-21.7,2.4
		c1.3,1.5,2.6,2.2,4.1,3.3c4.3,2.8,10.6,2.5,15,0.2c4.1-1.7,7.2-6.9,12.5-5.2c-4.4,2.2-8.5,4.9-12.2,8.7l2.2,1.9
		c3.2-4.3,7.6-7.9,12.3-9.9c4.5,2.2,8.7,6,12.1,9.8l2.2-1.9c-3.6-3.5-7.8-6.3-12.1-8.5c1.1-0.3,2.5-0.2,3.6-0.1
		c4.7,2.1,8.3,6.2,13.6,6.8c5.6,0.9,10.6-1.4,14.1-5.5l-2.7,1.4C265.9,170.7,261.7,170.4,258.5,169.3L258.5,169.3z M206.6,152.5
		c2.8,3.2,2.9,7.5,6.7,10.2c1.5,1.3,3.5,1.6,5.1,2.2c-1.8,0.2-3.5-0.6-5.4-0.7c-6.2-0.8-13.3,0-17.8-5c2,3.6,5.7,6.7,9.5,8
		c7.2,2.7,13.7-1.3,20.6-1.9C217.4,164.9,213.1,156.2,206.6,152.5L206.6,152.5z M269.1,152c-4.1,2.7-7.7,7.3-11.5,10.2
		c-2.1,1.6-4.6,2.1-7,2.8c5.4,0.4,9.9,3,15.6,2.6c6-0.3,11.6-3.8,14.4-9.1c-4.2,5-10.9,4.7-17,5.3c-2,0.2-4.1,0.9-6.1,0.9
		c0.1-0.1,0.1-0.2,0.3-0.2C264.4,163.9,266.3,156.6,269.1,152L269.1,152z M238.5,147.7l0.4,0.6l-0.1,4.6c1.3-0.5,3.1-0.5,4.4-0.7
		c-0.7-0.7-1.8-0.6-2.1-1.7c-0.5-0.7,0.2-1.5,0.2-2.1C240.4,148,239.1,148.5,238.5,147.7L238.5,147.7z M216.6,146.4l-4,4.1
		c6.8,6.1,15,9.4,24.2,10l-0.3-0.4c0.1-1.8-0.1-3.7,0.2-5.4l-0.1,0.1C229,154.6,222,151.8,216.6,146.4L216.6,146.4z M259.1,146.1
		c-0.8,1.1-1.9,2.1-3,2.8c-3.7,1.3-4.1,5.5-7.8,6.8c-1.4,0.6-2.3-1.3-3.6-1.6c-1.9,0.3-4,0.9-5.9,0.5v6l0.3-0.2
		c9.3-0.4,17.7-4.1,24.2-10.2C261.8,148.9,260.2,147.5,259.1,146.1L259.1,146.1z M223.7,142.9c0,0.6,0.8,0.6,0.5,1.4
		c-1.2,0.8-2.7,0.2-3.9,1.1c-1.1,0.6-2-0.7-2.6-0.6c5.2,4.5,11.4,7.5,18.5,7.9l0.4,0.3c-0.3-1.7-0.2-3.8-0.1-5.5
		C231.8,147.6,227.5,145.6,223.7,142.9L223.7,142.9z M223.1,142.2l0.4,0.5L223.1,142.2L223.1,142.2z M198.9,141l1.1,2.7
		c1,6,1.5,12.5,6.9,16.3l-0.1,0.1c-1.8-0.8-3.1-2.3-4.7-3.2c-5.1-3.3-12.2-4.8-15-11.1c0.8,4.6,3.9,8.8,7.7,11.7
		c4.6,4,11,3.7,16.5,5.3c-2.1-1.6-3.2-3.4-4.1-5.6C205.2,151.5,203.4,145.6,198.9,141L198.9,141z M253.7,140.8L253.7,140.8
		c-2.7,2,1.3,2.1,1.4,3.7c-0.4,0.8-1.8,1.6-0.9,2.5c0.3,0.3-0.2,0.6-0.3,0.8l3.7-3.1c-0.5,0.3-1.1,0.1-1.3-0.4
		C256.4,142.8,254.4,142.1,253.7,140.8L253.7,140.8z M276.8,140.4l-3,4c-4.1,5.6-3.6,13.3-9.2,18.1c2.9-0.9,6.1-1.3,9.1-2
		c6.8-1.7,14-8.4,14.9-15.4c-1.2,2.9-3.8,5.1-6.3,6.8c-4.5,2.1-9,4.4-12.8,7.7H269l0.3-0.3C275.8,154.9,274,146.5,276.8,140.4
		L276.8,140.4z M227.2,135.8c-1.1,1.4-2.5,2.7-3.9,3.9h0.3c3.2,2.7,7.2,4.6,10.9,5.2c-1.4-0.2-1.9-1.5-2.5-2.5
		c-0.4-0.8,0.9-1,0.7-1.9c0.5-0.8,1.2-1.2,2.1-1.3c-0.4,0.1-0.9,0.1-1.3,0.3C231.2,138.8,228.9,137.7,227.2,135.8L227.2,135.8z
		 M245.6,135.2c-0.4,0.2-0.7,0.2-0.9,0.7c-0.5,0.6-1.1-0.1-1.5-0.3c0.1,0.2,0.5,0.6,0.1,0.9c-0.5,0.5-0.9-0.2-1.4-0.4
		c-0.3,1.6-0.8-0.4-1.7-0.1c-0.4-0.9-1,0.2-1.5,0.1c-0.4,0.4-0.5,1.4-1.3,1.3c-0.2,0.5-0.9,0.3-0.9,0.7c0.4,0.5,0.9,0.3,1.4,0.2
		c0.7-0.6,1.6-0.2,2.4-0.3c-0.1,1.3,1.4,0.3,1.9,1.1c0.5,0,0.5-0.6,0.7-1c1.1-0.2,2.3-0.9,2.9-1.7
		C245.8,136.1,246.1,135.4,245.6,135.2L245.6,135.2z M243.5,134.4c0.4-0.6,1.4-0.5,1.6-1.1C244.3,133.1,243.4,133.7,243.5,134.4
		L243.5,134.4z M232.4,130.5l-3.4,3.9c2,1.5,4.3,2.7,6.8,3.1c0-0.7,0-1.4,0.3-1.9c0.4-0.2,0.9,0.1,1.2-0.3c-0.1-0.3-0.3-0.3-0.4-0.6
		c-0.2-0.5,0-1,0.1-1.3c0.1-0.3-0.3-0.8,0.2-1c-1.1,0.5-2.1-0.2-3.1-0.5C233.5,131.4,232.5,131.3,232.4,130.5L232.4,130.5z
		 M255.5,130.5c-1.1-0.8-0.8,0.7-1.7,0.6c-0.3-0.1-0.4-0.5-0.4-0.8c-0.1,0.8-0.7,1.4-1.2,2.1c-1.6-0.5-1.2,1.9-2.9,1.4
		c0.2,0.6,0.9-0.1,1.3,0.1c0.3-0.1,0.2-0.4,0.4-0.6c0.2-0.7,1-0.9,1.7-0.7c0.4,0.6,0.4,1.3,0.4,2c-0.4,0.3-0.4,0.8-0.3,1.2
		c-0.5,0.8-0.3,2.6-1.8,2.4c-1.6-0.6-3.3-1-5-1.1v0.4c1.2,0.4,2.4,0.4,3.4,1.3c1-0.1,2.3,0.1,3-0.4c0.1-0.7,0.4-1.4,0.9-1.9
		c0.6,0.1,0.5,0.9,0.8,1.4c1.9-2.4,3.6-4.7,4.2-7.7C257.2,130.1,256.5,130.6,255.5,130.5L255.5,130.5z M195.5,130.2
		c0.4,2.4-0.3,4.5-0.7,6.6c-1.2,4.1-0.6,9,1.8,12.4c-0.8-0.4-1.3-1.3-1.8-2.1c-3-5.7-10.5-9-11.2-15.8c0,2.5,0,5.1,0.7,7.3
		c2.1,7.7,10.6,11.7,16.3,15.5C196.6,147.1,198.8,137.5,195.5,130.2L195.5,130.2z M246,130.1c-0.8,1.1,0.8,1,0.9,2
		c0.2,0,0.4,0.1,0.5-0.1c-0.1-0.4-0.1-0.8-0.4-1.1C246.3,130.9,246.3,130.1,246,130.1L246,130.1z M280.3,129.5
		c-3.4,7.4-0.9,17.2-5.1,24.2l0.7-0.6c8.1-4.4,17.8-11.9,16.2-22.8c-0.1,1.5-0.6,2.8-1.3,4.1c-3.2,4.9-8.6,9-11.2,14.1
		c-0.1,0.2-0.3,0.3-0.4,0.1l0.5-0.7C283.5,142.4,280,135.6,280.3,129.5L280.3,129.5z M230.6,128.8c-0.1,0.5-0.5,0.9-0.8,1.3
		c0.5-0.2,0.8-1,1.4-0.9L230.6,128.8L230.6,128.8z M224.5,127.3l0.3,0.6c0.4,1.8,1.5,3.3,2.4,4.9l1.7-1.7c-0.1-0.2,0-0.4-0.1-0.6
		c-0.3-0.4-0.1-1.2-0.5-1.5c-0.1,0.4,0.3,0.6,0.1,0.9c-0.5-0.2-1.1-0.5-1.4-1.1c0.1-0.8-0.5-0.2-0.9-0.6
		C226.1,127.3,224.9,127.9,224.5,127.3L224.5,127.3z M208.9,125l0.2,0.2c0.2,2.6,0.9,5.1,1.1,7.6c0.3-0.2,0.1-0.8,0.5-0.8
		c0.1-1.2,0.3-2.6,1.1-3.7c1.2,0,1.2-1.6,2.4-1.5c0.3,0.2,0.7,0.5,0.8,0.9c-0.6-0.7-0.6-1.9-0.4-2.7
		C212.9,125.3,210.7,125.3,208.9,125L208.9,125z M201.3,125.1c0.4,9.1,3.8,17.2,9.8,24c1.3-1.4,2.8-3,4.3-4.1
		c-0.7-0.5-1.2-1.3-1.9-1.9c-0.9-0.2-1.5-1-1.7-1.8c0,0.1-0.1,0.2-0.2,0.2c-0.8,0.4-1.1-0.6-1.6-0.9c-0.5-0.3-0.1-1.4-1-1
		c-0.5-0.8-1.4-0.8-1.8-1.7l-0.4,0.6c-0.7,0-1.1-0.8-1.5-1.2c-1.3,0.4-0.8-1.4-1.6-2.1c-0.3-1.2,0.1-2.2,0.7-3.1
		c0.4-0.4,1.1-0.1,1.3,0.2c0.7,0.2,0.3-0.5,0.6-0.7c1-0.8,1.4,0.3,2,0.9c-0.8-2.3-1.3-5-1.2-7.5
		C205.3,125.3,203.2,125.2,201.3,125.1L201.3,125.1z M216.4,124.9c0.4,1.3,0.8,2.7,0.5,4.1c0-0.7,1.4-1.3,0.3-1.9
		c0.4-0.7,0.1-2,0.9-2.1C217.5,125.2,217,125.2,216.4,124.9L216.4,124.9z M261.3,124.8c0.2,0.7-0.2,1.4-0.2,2.1
		c-0.8,1.2,1,1.6,0.5,2.8c-0.3,0.3-0.7,0.2-1,0.1c-0.9,3.5-2.7,6.8-5.2,9.6h-0.2c0.6,0.4,1.1,1.3,1.8,1.5v-0.5
		c0.2-0.1,0.2-0.3,0.4-0.3c1.4,0.4,1.5,2.4,1.6,3.3c3.7-3.9,5.9-8.4,7.1-13.4c0.4-1.7,0.2-3.7,0.9-5.1
		C265.1,125,263,125.1,261.3,124.8L261.3,124.8z M268.7,124.7l0.2,0.4c-0.3,7.6-3.5,14.5-8.3,19.7c1.4,1.2,2.9,2.8,4.2,4.1
		c4.8-5.5,8.1-11.7,9.2-18.7c0.4-1.8,0.3-3.7,0.8-5.5c-1.8,0.5-3.9,0.2-5.8,0.3L268.7,124.7L268.7,124.7z M255.8,124.6l1,1.1
		c0,1.3,1.7,1.7,1.8,3c0.4-1.2,0.3-2.5,0.7-3.7C258.1,124.9,256.7,125.3,255.8,124.6L255.8,124.6z M256.4,122.8h0.4H256.4
		L256.4,122.8z M221,122.1c-1.3,0.4,0,1.7-0.1,2.5c-0.1,0.7-0.8,0.2-1.2,0.4c0.2,1.1-0.7,1.3-1.5,1.5c-0.2,0.7,0.6,1.1,0.2,1.8
		c1,1,1.7,2.2,1.5,3.5c0.7,1,0.5,2.4,0.7,3.7c0.6,0.6,0.9,1.4,0.9,2.3c0,0.5-0.5,0.6-0.8,0.8c-0.4,0.4,0.3,0.2,0.3,0.6l4.8-5
		c-1.7-1.9-3-4.6-3.5-7.2l-0.6-0.4c-0.1,0.7-0.1,1.7-0.7,1.9c-0.3-0.3-1-0.4-1-1.1c0.2-0.4,0.5-0.2,0.8-0.2c0-0.3,0-0.6,0.1-0.9
		c0.1-0.4-0.6-0.7-0.1-1.1c0.4,0,0.6,0.5,0.9,0.7l0.9-0.4c-0.2-0.8,0.2-2.1-0.1-3C222.3,122,221.6,122.2,221,122.1L221,122.1z
		 M236.3,117.5l0.1,0.1c0.1,0.5,0.5,1.4,0,1.7c-0.6,0.9-2.2,0.7-2.4,1.8c-1.7,0.5-1,2.6-1.6,3.9c-1.1,0.2-0.7-1.1-1.2-1.5l-0.2,0.3
		c-1.7-1.3-1.3,1.4-2.3,1.7c1.2,0.3,2.1-0.4,3.3-0.4c0.1,0.1,0.3,0.2,0.2,0.4h0.2c0.3-0.3,0.3-0.6,0.3-0.9c0.1-0.4,0.5-0.6,0.8-0.4
		c-0.1,0.4,0.2,0.6,0.4,0.8l-0.6,0.9c-0.3,0.3,0.1,1.3-0.8,1.3c-0.2,0-0.3-0.1-0.2-0.3h-0.2l0.4,0.8c0.5,0,0.4-0.9,1.1-1
		c0.6-0.2,0.7-0.8,0.6-1.4c0.8-0.6,1.7-0.2,2.5-0.3c0.2,0.2,0.7,0.3,0.6,0.7c0.3,0.6-0.2,1.4-0.6,1.9c0.2,0.4-0.3,0.6-0.3,1
		c-0.7,0.7-1.4,0.4-2.3,0.6c1.2,0.8,2.4,1.3,3.9,1.2c1.4,0.1,0.8-1.7,1.8-2.3c0.6-0.1,1.1,0.1,1.8-0.1c0.3-0.5,0.3-1.2,0.4-1.8
		c-0.6-0.3-0.4-0.9-0.4-1.4c-0.4-0.4-0.3-1.2-1-1.3c-0.2-0.4,0.3-0.6,0.2-0.9c1.1-0.4-0.6-1.1,0.1-1.7c-1.2-0.2-1.5-2.2-3-1.6
		c-0.4-0.5-1.3-0.7-1.3-1.5c0.1-0.5,1.3-0.3,1.2-0.2c-0.1-0.1-0.2-0.2-0.2-0.3C237.2,117.2,236.6,117.2,236.3,117.5L236.3,117.5z
		 M185.1,115.2c-1.9,4.3-1.8,10-0.4,14.5c1.2,4.7,5.7,7.9,8,11.9c-0.4-1.7-0.3-3.8-0.1-5.5c1.5-6,3.9-11.8,3.5-18.5
		c-0.9,4.8-5.2,8.2-5.7,13.1c-0.3,2,0.2,4,0.4,5.8c-0.5-0.9-0.9-1.9-1-3.1C189.1,127,184,122.2,185.1,115.2L185.1,115.2z
		 M290.5,114.5c1,5.8-2.5,10.2-4,15.3c-0.8,1.9-0.5,4.4-1.7,6.1c-0.1-1,0.5-1.9,0.5-3c0.9-6.5-4.7-10.4-6-15.9
		c-0.1,1.5,0,2.9,0.3,4.2c0.3,6.9,4.8,12.4,3.5,19.6c1.3-1.7,2.3-3.4,3.8-5.1C292.2,130.4,293.5,121.4,290.5,114.5L290.5,114.5z
		 M236.5,110.3c-3,0.4-5.9,1.6-8,3.9c0.7,0.2,1.4,0.4,2,0.9c0.2,0.4-0.3,0.4-0.4,0.6c0.5,0.7,0.5-0.1,1-0.3c0.4,0.4,0.8,0.7,1.4,0.4
		c0.3,0.5,0.8,0,1.2,0.1c0.2-0.4,0.8-0.8,0.5-1.3c0.2-0.4,0.3-1,0.9-1c-0.3,1.7,1.3,0,1.7,0.8C236.3,113.2,236.7,111.6,236.5,110.3
		L236.5,110.3z M238.8,110.2l0.1,3.9l1.5,0.5c0.4-0.7,1.2-0.9,1.7-1.6c0.5-0.2,0.5,0.4,0.7,0.5c0.3,1.8-1.7,2.6-2.7,3.3h0.4
		c1.1-1.2,1.7,1.4,2.9,0.3c0.2-1.5,2.3-1.3,2.8-2.8c-0.4,0.3-0.5-0.1-0.9-0.2c0.1-0.5,0.8-0.8,1.1-1.2
		C244.1,111.6,241.6,110.6,238.8,110.2L238.8,110.2z M222.1,109.5c-1.2,1.5-2.4,3.2-3.3,4.9c-1.4,2.6-1.8,5.6-2.3,8.5l2.3-0.1
		c-0.4-0.5-0.3-1.1-0.3-1.7c0.5-1.2,0.8-3.2,2.5-3.1c0.8-0.2-0.1-0.8,0.6-1.2c1.2-0.2,1.6-1.3,2.6-1.9c1-0.1,1.2-1.5,2.2-1.6
		C224.7,112.3,223.6,110.9,222.1,109.5L222.1,109.5z M253.4,109.4c-1.7,1.9-3.8,4-5.5,5.9c0.1,0.3,0.4,0.6,0.4,0.4
		c0.4-0.5,0.1-1.9,1.3-1.6c1.2,0.4,2.2,0.3,3.5,0.4c0.7,0.4,0.8,1.3,1.5,1.6c0.3,0.3-0.1,0.6-0.2,0.9c0.1,0.1,0.3,0.3,0.3,0.4
		c0.4-0.3,0.9-0.7,1.5-0.6c0.7,0,0.9,1,1.5,1.1c0.3,0.4-0.2,0.7-0.4,0.8c0.1,0.7-0.6,0.9-0.4,1.6c0.4,0.1,0.7-0.1,0.9-0.4
		c1.4-1,0.3-2.3,0.1-3.5c-0.5-1.1-1.7-1.3-2.6-2.2c0-0.4,0.3-0.8,0.5-0.9C255.9,111.8,254.2,110.7,253.4,109.4L253.4,109.4z
		 M216.6,104v0.4c-4.6,5.2-7.1,11.5-7.6,18.6c1.9,0.1,3.9-0.1,5.7,0.1l-0.2-0.2c0.3-5.6,2.3-10.7,6.1-14.7
		C219.1,106.8,217.7,105.4,216.6,104L216.6,104z M238.7,102.6c0.3,1.7,0.2,3.7,0.1,5.4c3.4,0.3,6.9,1.6,9.3,3.8
		c1.3-1.3,2.7-3,4.1-3.8C248.2,104.9,243.8,103,238.7,102.6L238.7,102.6z M236.6,102.6l-0.2,0.1c-5,0.3-9.1,2.5-12.9,5.5
		c1.5,1,2.6,2.5,4.1,3.8c2.4-2.3,5.6-3.7,9-3.8C236.4,106.5,236.3,104.3,236.6,102.6L236.6,102.6z M190.6,101.3
		c-2.1,2.5-3.5,5.5-4.2,8.6c-1.4,6.6,2.6,11.7,3.4,17.8c1.2-7.6,9.1-12.4,9.6-20.3c-2.3,4.3-8,6.8-9.1,11.8c0,0.8-0.2,1.6-0.4,2.4
		l-0.2-0.2l0.3-3.3C191,112.3,187.5,106.3,190.6,101.3L190.6,101.3z M284.5,100.4c2.7,3.9,1.2,9.4,1,13.9c0.1,2.2,0.5,4.4,0.3,6.6
		c-0.3-0.9-0.4-1.8-0.6-2.7c-1.1-4.9-6.9-7.3-9.2-11.5c0.4,1.4,0.6,2.8,1.1,4.1c2,5.8,8.1,9.8,8.9,16.1c0.5-6.1,4.8-10.9,3.2-17.5
		C288.3,106.2,286.9,103,284.5,100.4L284.5,100.4z M211.5,99.1l-0.2-0.6c-6.2,6.7-9.6,15.2-10.1,24.4l5.9,0.1
		c-0.2-1.9,0.3-3.6,0.5-5.5c1.3-5.4,3.6-10.6,7.8-14.6L211.5,99.1L211.5,99.1z M264.2,98.5l-3.8,4.1l-0.6,0.1c0.5,0,0.4,0.6,0.7,0.8
		c1.6,1.1,2.3,2.7,3.6,3.9c0.5,1.2,1.8,2,1.8,3.5c1.9,3.6,2.7,7.9,2.9,12.1c1.9-0.2,4-0.3,5.8-0.3l-0.2-0.2
		C274.1,113.1,270.3,105.1,264.2,98.5L264.2,98.5z M218.1,102.8c1.5,1,2.9,2.6,4,3.9c3.8-3.7,8.9-6,14.4-6.1c-0.1-1.8-0.1-3.7,0-5.5
		C229.5,95.6,223.3,98.2,218.1,102.8L218.1,102.8z M255.1,94.9c-0.3,0.1-0.2,0.5-0.1,0.7c0.9,0.1,0.9,1.7,2.1,1l-0.3-1.1
		C256.5,94.8,255.6,95.2,255.1,94.9L255.1,94.9z M238.6,94.9c0.3,1.8,0.2,4,0.1,5.7c4.6,0.1,8.9,1.5,12.4,4.2
		c-0.3-0.2-0.8-0.9-0.7-1.4h0.1c0.1-0.6-0.9-0.9-0.6-1.6c0.9,0.1,1.5,1.3,2,1.9c2.5-0.1,1,2.9,2.9,3.8c0.4,0.2-0.2,1.1,0.5,1.1
		c0.6,0.5,1.3,1,1.2,1.7c0.2,1.3,1.3-0.4,1.8,0.4c0.5,0.4-0.4,0.6-0.3,1.1c0.3,0.1,0.6-0.3,0.9,0.1c0.1,0.4-0.2,0.6-0.4,0.9
		c-0.2,0.8,0.7,0.3,0.9,0.7c0.4,0.9,0.7,2.1,0.1,3.1c0.9,1-0.1,2-0.3,2.9c-0.6,0.6-0.7,2.1-2,1.7c-0.3,0.5,0.2,1.1-0.1,1.5l2.1,0.1
		c-1.2-1.7,0.4-3.4,0.9-4.9c0.2-0.1,0.6-0.7,0.8-0.1c-0.1,0.7-0.2,1.5-0.3,2.1c0.6,0.8,0.3,2,0.5,2.9l5.5-0.1
		c-0.4-3.7-1.2-7.2-2.7-10.4c-0.4,0.1-0.9,0.4-1.3,0.2c-0.6-0.8-1.1-1.8-2-2.5c-0.7,0-1.2-0.6-1.8-0.9c-1.2,0-0.8-1.8-2-1.6
		c-0.7-0.3-1.1-0.6-1.3-1.4c0-0.9-0.1-1.9-0.9-2.6c-0.5-0.3-0.9,0.1-1.2,0.4c-0.7,0.4-1-0.3-0.9-0.9c-0.8-0.6,0-1.2-0.4-1.9
		c-1.1-0.9-0.6-2.5-2-3.2c-2.4-1.1-4.9-1.8-7.5-2.4C241.4,95.3,239.9,95.3,238.6,94.9L238.6,94.9z M192.7,99.2
		c-2.9,4.3-0.6,10.2-1.4,15.3c1-2.1,3.1-4.1,4.8-5.5c4.1-2.6,7.7-6.8,7.8-11.5c-2.2,5.5-9.3,6.3-11,12.2h-0.2
		c2.6-4.9,1.2-11.8,6.1-15.4C196.3,94.9,194,96.9,192.7,99.2L192.7,99.2z M276.2,93.5c3.8,2.5,3.6,7.1,4.9,10.9
		c0.4,1.6,1.3,3,1.4,4.6c-2.1-5.9-9-6.6-11.5-12.2l0.8,3.3c2,6.3,9.5,7.9,12.4,13.7c-0.9-4.2,0.7-8.5-0.6-12.6
		C282.7,97.6,279.8,94.5,276.2,93.5L276.2,93.5z M243.1,90.2l-2.6,1.2c-0.3,0.2-1.2-0.3-1.1,0.4c0.5,0.3,1,0.7,1.6,0.8
		c1.6-0.7,3.6,0.5,4.9-1C245.6,90.4,244.2,90.4,243.1,90.2L243.1,90.2z M209.3,89c-3.4,1.4-7.1,2.5-9.7,5.7c-2,2.6-2.6,5.7-3.6,8.6
		l3-2.6C203.7,97.5,204.9,92.3,209.3,89L209.3,89z M265.7,88.4l2.8,2.8c2.8,4.3,6.7,8.6,10.6,11.3c-0.8-1.7-1-3.8-1.9-5.5
		C275.5,92.3,270.1,89.9,265.7,88.4L265.7,88.4z M212.6,97.3l4.3,4.1c5.3-5.2,12.1-8.1,19.7-8.4c-0.3-1.8-0.2-3.8-0.1-5.7
		C227.3,87.8,219.4,91.2,212.6,97.3L212.6,97.3z M238.7,87.1c0.1,1.4,0.1,3.5,0,5.1c0-0.3,0.3-0.3,0.4-0.4c0.5,0.2,0.5,0.8,0.4,1.2
		h-0.1c2.6-0.2,5.1,0.5,7.5,1.2c2.5,0.3,4.6,3.3,7.1,1.7c0.7,0.8,1.9,0.1,2.2,1.2c0.9,0.2,1.4,1.1,2.1,1.7c-0.1,0.8,0.7,1.3,1,1.9
		v-0.1c0.8-1.5,2.1-2.8,3.6-3.5c-5.1-4.9-11.4-8.1-18.3-9.3C242.6,87.5,240.5,87.6,238.7,87.1L238.7,87.1z M271.7,105.7
		c7.3,12,5.8,30.4-3,41.3c-9.7,12.9-25.9,18.5-41.7,14.1c-14.4-3.8-26.2-17.6-27.5-32.5c-1.8-15.8,5.5-30.2,18.9-38.1
		c10.3-6.3,26.2-7,36.9-1C261.8,92.6,268.3,99.1,271.7,105.7L271.7,105.7z"/>
	<g>
		<path class="st3" d="M491.4,105.5h-4.6V124h4c3.1,0,5.3-0.8,6.6-2.6c1.3-1.7,1.9-3.9,1.9-6.6c0-2.6-0.5-4.8-1.6-6.6
			C496.5,106.4,494.4,105.5,491.4,105.5z"/>
		<path class="st3" d="M551.9,171.6l-2.6-13.7h-18.4l-2.5,13.7h-16.5l19.7-83h17.6l12.9,54.5c0.4-4,0.6-8.1,0.6-12.3
			C562.7,58.6,504.1,0,431.9,0c-57.5,0-106.2,37.1-123.8,88.6h8.3v50.6c0,4.5,0.8,8.1,2.4,10.6c1.6,2.6,3.8,3.8,6.6,3.8
			c2.8,0,5-1.3,6.6-3.8c1.6-2.5,2.4-6.1,2.4-10.6V88.6h16.1v49.4c0,4.9-0.5,9.5-1.4,13.9c-1,4.3-2.5,8.2-4.5,11.4
			c-2.1,3.3-4.2,5.6-6.5,6.9c-3.1,1.8-6.9,2.8-11.3,2.8c-2.5,0-5.3-0.3-8.3-0.9c-3-0.5-5.5-1.7-7.5-3.4c-2-1.7-3.9-4.1-5.6-7.1
			c-0.3-0.7-0.6-1.3-0.9-2c13.2,58.4,65.2,102,127.5,102c58,0,107.1-37.8,124.3-90.1H551.9z M411.2,171.6H396L376.4,126v45.6h-15.2
			v-83h15.1l19.7,45.9V88.6h15.2V171.6z M461.9,106.4h-23.7v14.5h20.3v16.7h-20.3v33.9H422v-83h39.9V106.4z M495.6,140.8h-8.8v30.8
			h-16.2v-83h26.8c5.9,0,10.2,2.2,13.1,6.6c2.9,4.4,4.4,10.7,4.4,18.8c0,8.4-1.6,14.9-4.8,19.6C507,138.4,502.2,140.8,495.6,140.8z"
			/>
		<polygon class="st3" points="534.4,139.9 546,139.9 540.2,110.1 		"/>
		<path class="st0" d="M531.6,88.6l-19.7,83h16.5l2.5-13.7h18.4l2.6,13.7h4.2c3-9.1,5-18.6,5.9-28.5l-12.9-54.5H531.6z M534.4,139.9
			l5.7-29.8l5.8,29.8H534.4z"/>
		<path class="st0" d="M510.6,95.3c-2.9-4.4-7.3-6.6-13.1-6.6h-26.8v83h16.2v-30.8h8.8c6.5,0,11.4-2.3,14.5-7.1
			c3.2-4.7,4.8-11.3,4.8-19.6C514.9,105.9,513.5,99.7,510.6,95.3z M497.3,121.4c-1.3,1.7-3.4,2.6-6.6,2.6h-4v-18.5h4.6
			c3,0,5.1,0.9,6.2,2.7c1.1,1.8,1.6,4,1.6,6.6C499.2,117.5,498.6,119.7,497.3,121.4z"/>
		<polygon class="st0" points="422,171.6 438.2,171.6 438.2,137.7 458.5,137.7 458.5,120.9 438.2,120.9 438.2,106.4 461.9,106.4 
			461.9,88.6 422,88.6 		"/>
		<polygon class="st0" points="396,134.5 376.3,88.6 361.2,88.6 361.2,171.6 376.4,171.6 376.4,126 396,171.6 411.2,171.6 
			411.2,88.6 396,88.6 		"/>
		<path class="st0" d="M310.8,168.8c2,1.7,4.5,2.8,7.5,3.4c3,0.6,5.8,0.9,8.3,0.9c4.4,0,8.2-0.9,11.3-2.8c2.3-1.3,4.4-3.6,6.5-6.9
			c2.1-3.3,3.6-7.1,4.5-11.4c1-4.4,1.4-9,1.4-13.9V88.6h-16.1v50.6c0,4.6-0.8,8.2-2.4,10.6c-1.6,2.5-3.8,3.8-6.6,3.8
			c-2.8,0-5-1.3-6.6-3.8c-1.6-2.5-2.4-6-2.4-10.6V88.6h-8.3c-4.5,13.3-7.1,27.4-7.1,42.2c0,9.9,1.2,19.6,3.3,28.9
			c0.3,0.7,0.5,1.3,0.9,2C306.9,164.8,308.7,167.2,310.8,168.8z"/>
	</g>
</g>
</svg>
