<?xml version="1.0" encoding="utf-8"?>
<!-- Generator: Adobe Illustrator 23.1.0, SVG Export Plug-In . SVG Version: 6.00 Build 0)  -->
<svg version="1.1" id="Capa_1" xmlns="http://www.w3.org/2000/svg" xmlns:xlink="http://www.w3.org/1999/xlink" x="0px" y="0px"
	 viewBox="0 0 425.2 425.2" style="enable-background:new 0 0 425.2 425.2;" xml:space="preserve">
<style type="text/css">
	.st0{fill:#676112;}
	.st1{fill:#706F6F;}
	.st2{fill:none;stroke:#3C3C3B;stroke-miterlimit:10;}
</style>
<g>
	<path class="st0" d="M349.01,198.33c-3.27,7.99-7.84,14.66-23.29,12.04c-5.79-1.23-11.79-12.01-11.29-17.76
		c0.73-8.44,0.33-16.76,0.47-25.24c0.18-10.59-0.4-17.41,1.23-37.9c0.8-2,16.14,0.8,26.74-0.19c0.45-0.83,0.38-10.34,0.06-12.45
		c-5.18,0.21-20.14-0.14-25.89-0.01c-0.23-4.47-0.21-0.99-0.3-7.83c-1.63-0.28-12-0.63-12.42,0c-0.42,0.63,0.06,5.55,0.26,7.75
		c-3.83,0.24-7.45-0.09-11.29,0.15c-0.68,4.47-0.57,10.63-0.27,12.23c2.43,0.16,11.03-1.18,11.13,1.42
		c0.26,7.12,0.92,14.5,0.26,21.61c-1.67,17.9,2,33.26-9.33,48.52c-9.33,12.56-25.34,18.75-40.95,14.99
		c-9.57-2.31-20.5-8.22-25.72-16.77c-3.41-5.6-6.5-15.42-2.21-25.9c5.27-11.31,21.23-14.24,40.49-6.55
		c6.71,2.52,12.77,8.16,12.8,16.99c0.09,7.57-15.76,18.22-31.08,12.44c-8.14-2.74-13.47-9.73-9.6-17.48
		c3.72-7.44,12.41-6.83,16.1-5.69c6.15,1.91,16.01,9.63,6.47,14.89c7.3-11.73-15.07-19.04-18.44-4.59
		c-2.8,12.03,14.01,11.84,21.57,9.06c13.58-5.01,8.54-20.82-4.84-24.39c-12.13-3.23-31.74-0.62-29.58,16.74
		c2.11,16.95,18.95,20.16,31.45,19.6c14.26-1.33,29.82-14.52,22.05-31.38c-10.17-22.05-58.79-25.85-67.81,3.47
		c0.51-22.05,0.19-44.22,1.03-66.24c-4.17,0.21-12.16-1.73-12.07,3.18c0.1,5.17,0.29,10.34,0.28,15.51
		c-0.02,11.07,1.2,22.47,0.7,33.48c-0.31,6.73-1.51,14.18-0.1,20.85c-5.15-2.8-13.77-11.86-39.07-3.68
		c-20.36,7.98-20.7,18.92-26.5,30.29c-10.98,31.32-18,32.73-33.16,34.32c-18.76,1.58-39.6-11.31-34.98-32.95
		c3.27-15.35,19.46-25.45,34.92-21.05c8.44,2.41,12.26,5.46,15.11,14.12c2.12,6.46-1.45,19.87-8.38,22.77
		c-7.64,3.19-17.32,1.38-21.74-1.34c-7.34-6.23-6.63-12.95-4.99-18.99c2.74-6.99,13.9-7.99,18.14-4.63
		c3.04,1.06,11.24,14.47,0.41,15.14c2.56,0,2.16-17.77-8.98-14.67c-10.92,3.04-6.42,17.46,1.18,20.67
		c19.37,8.2,28.35-23.53,9.15-28.87c-8.99-2.5-12.73-1.74-20.32,1.81c-9.24,4.32-11.82,21.53-6.67,29.44
		c4.09,6.28,12.93,8.23,19.85,9.94c6.43,1.59,17.78-0.18,24.02-8.1c4.61-5.61,7.86-10.83,7.65-17.2
		c-0.33-9.92-7.38-23.07-17.44-26.11c-18.71-5.66-29.9-0.66-44.31,10.39c-8.57,6.57-9.01,18.18-9.5,27.99
		c-0.59,11.85-0.95,23.58-0.95,35.44c0,9.75,0,19.51,0,29.27c0,7.99,0.54,18.65,0,27.59c2.42,0,14.05,0.84,14.09-0.83
		c0.15-7.7,0.04-15.4,0.17-23.1c0.14-8.14,0.87-16.22,0.83-24.37c-0.13-14.52,0.36-8.36-1.23-20.82c0.2-0.59,12.27,4.85,13.56,5.34
		c2.75,0.71,10.01,3.35,12.87,3.89c3.55,0.68,8.06,1.14,15.28-0.4c4.67-1.09,6.14-1.62,8.81-2.94c10.01-4.37,18.9-21.81,21.59-27.66
		c4.28-9.28,6.36-20.25,12.43-28.59c11.03-15.15,36.95-13.59,46.27,2.4c9.17,15.74,0.79,39.6-17.63,42.95
		c-7.63,1.39-15.7-2.69-21.39-7.32c-4.88-3.97-8.63-11.58-4.28-23.61c5.31-7.96,13.86-15.87,25.18-10.62
		c9.07,4.21,11.29,12.53,6.76,22.02c-3.63,7.6-7.48,9.25-16.22,7.56c-8.13-1.58-9.08-11.86-5.45-17.62
		c-0.41,4.54-0.72,12.02,6.16,12.02c6.96,0,15.59-4.74,14.17-13.25c-2.78-16.69-27.62-8.61-29.07,5.13
		c-1.88,17.79,20.56,25.56,33.2,14.73c13.24-11.34,10.03-31.33-6.25-37.4c-17.21-6.41-34.46,4.46-36.68,22.05
		c-1.92,15.21,5.06,28.86,20.44,33.46c10.47,3.14,27.8-0.29,35.14-8.75c4.71-6.63,7.36-10.01,8.88-18.54
		c1.84-9.32-0.29-20.51,0.37-21.25c2.71,1.94,5.79,6.74,7.88,9.39c2.92,3.7,7.25,6.42,11.18,8.91c8.6,5.45,21.08,8.46,31.22,7.92
		c7.73-0.42,17.81-1.59,24.74-5.21c2.65-1.38,17.49-11.45,15.8-14.38c5.77,9.99,16.15,19.61,29.6,16.72
		c6.06-1.31,15.91-11.43,19.09-16.55C353.18,200.5,350.87,198.56,349.01,198.33z M254.1,185.67c-1.21,0.93-1.26,1.17-2.07,1.01
		c-0.81-0.16-1.22-0.97-1.38-2.11c-0.16-1.13,0.4-1.66,1.17-2.75s2.27-0.45,2.27-0.45s1.17,0.89,1.38,1.74
		C255.68,183.97,255.31,184.74,254.1,185.67z M99.63,217.29c-7.25-0.93-2.79-7.55-2.36-8.32c0.61-0.93,2.37-0.4,2.67,0.51
		C101.08,210.98,101.99,217.59,99.63,217.29z M178.23,211.2c1.44-3.08,3.69-2.45,3.69-2.45s2.35,0.18,0.59,3.71
		c-1.11,2.23-2.26,4.3-4.46,3.54C176.61,215.51,176.79,214.28,178.23,211.2z"/>
	<g>
		<path class="st1" d="M254.81,283.83h-1.72v2.79h-1.52v-8.67h3.42c2.02,0,3.3,1.14,3.3,2.91
			C258.28,282.81,256.72,283.83,254.81,283.83z M254.86,279.33h-1.77v3.12h1.77c1.15,0,1.87-0.63,1.87-1.56
			C256.73,279.86,256,279.33,254.86,279.33z"/>
		<path class="st1" d="M265.41,286.62l-2.13-3.02h-1.91v3.02h-1.52v-8.67h3.87c2,0,3.22,1.05,3.22,2.75c0,1.44-0.85,2.3-2.07,2.64
			l2.34,3.28H265.41z M263.59,279.33h-2.22v2.91h2.23c1.09,0,1.78-0.57,1.78-1.46C265.38,279.83,264.71,279.33,263.59,279.33z"/>
		<path class="st1" d="M272.94,286.77c-2.66,0-4.52-2.02-4.52-4.47s1.88-4.5,4.55-4.5s4.52,2.02,4.52,4.47
			S275.61,286.77,272.94,286.77z M272.94,279.2c-1.72,0-2.92,1.38-2.92,3.07c0,1.7,1.23,3.1,2.95,3.1c1.72,0,2.92-1.38,2.92-3.07
			S274.67,279.2,272.94,279.2z"/>
		<path class="st1" d="M283.46,286.77c-2.71,0-4.5-1.93-4.5-4.47c0-2.44,1.86-4.5,4.47-4.5c1.51,0,2.44,0.42,3.33,1.18l-0.97,1.15
			c-0.67-0.57-1.33-0.93-2.43-0.93c-1.6,0-2.81,1.39-2.81,3.07c0,1.8,1.18,3.11,2.95,3.11c0.82,0,1.56-0.26,2.09-0.66v-1.62h-2.22
			v-1.33h3.69v3.64C286.22,286.15,284.99,286.77,283.46,286.77z"/>
		<path class="st1" d="M294.62,286.62l-2.13-3.02h-1.91v3.02h-1.52v-8.67h3.87c2,0,3.22,1.05,3.22,2.75c0,1.44-0.85,2.3-2.07,2.64
			l2.34,3.28H294.62z M292.8,279.33h-2.22v2.91h2.23c1.09,0,1.78-0.57,1.78-1.46C294.6,279.83,293.93,279.33,292.8,279.33z"/>
		<path class="st1" d="M306.32,286.62h-1.61l-0.88-2.09h-4.1l-0.89,2.09h-1.56l3.82-8.74h1.41L306.32,286.62z M301.77,279.7
			l-1.49,3.47h2.99L301.77,279.7z"/>
		<path class="st1" d="M312.08,284.49h-0.05l-2.71-4.06v6.2h-1.5v-8.67h1.62l2.64,4.1l2.64-4.1h1.62v8.67h-1.52v-6.22L312.08,284.49
			z"/>
		<path class="st1" d="M326.87,286.62h-1.61l-0.88-2.09h-4.1l-0.89,2.09h-1.56l3.82-8.74h1.41L326.87,286.62z M322.33,279.7
			l-1.49,3.47h2.99L322.33,279.7z"/>
		<path class="st1" d="M331.57,281.59c1.83,0.45,2.79,1.1,2.79,2.55c0,1.64-1.28,2.6-3.1,2.6c-1.33,0-2.58-0.46-3.62-1.39l0.92-1.09
			c0.83,0.72,1.66,1.13,2.74,1.13c0.94,0,1.54-0.43,1.54-1.1c0-0.63-0.35-0.97-1.96-1.34c-1.85-0.45-2.89-0.99-2.89-2.6
			c0-1.51,1.24-2.53,2.96-2.53c1.26,0,2.27,0.38,3.15,1.09l-0.82,1.15c-0.78-0.58-1.56-0.89-2.35-0.89c-0.89,0-1.41,0.46-1.41,1.04
			C329.52,280.89,329.91,281.19,331.57,281.59z"/>
		<path class="st1" d="M195.35,299.98h-3.23v-8.67h3.23c2.73,0,4.61,1.87,4.61,4.32S198.08,299.98,195.35,299.98z M195.35,292.7
			h-1.71v5.9h1.71c1.82,0,3.01-1.23,3.01-2.94S197.17,292.7,195.35,292.7z"/>
		<path class="st1" d="M208.24,292.67h-4.91v2.26h4.35v1.36h-4.35v2.33h4.97v1.36h-6.49v-8.67h6.43V292.67z"/>
		<path class="st1" d="M217.07,299.98h-3.23v-8.67h3.23c2.73,0,4.61,1.87,4.61,4.32S219.79,299.98,217.07,299.98z M217.07,292.7
			h-1.71v5.9h1.71c1.82,0,3.01-1.23,3.01-2.94S218.89,292.7,217.07,292.7z"/>
		<path class="st1" d="M229.96,292.67h-4.91v2.26h4.35v1.36h-4.35v2.33h4.97v1.36h-6.49v-8.67h6.43V292.67z"/>
		<path class="st1" d="M235.18,294.95c1.83,0.45,2.79,1.1,2.79,2.55c0,1.64-1.28,2.6-3.1,2.6c-1.33,0-2.58-0.46-3.62-1.39l0.92-1.09
			c0.83,0.72,1.66,1.13,2.74,1.13c0.94,0,1.54-0.43,1.54-1.1c0-0.63-0.35-0.97-1.96-1.34c-1.85-0.45-2.89-0.99-2.89-2.6
			c0-1.51,1.24-2.53,2.96-2.53c1.26,0,2.27,0.38,3.15,1.09l-0.82,1.15c-0.78-0.58-1.56-0.89-2.35-0.89c-0.89,0-1.41,0.46-1.41,1.04
			C233.12,294.26,233.52,294.56,235.18,294.95z"/>
		<path class="st1" d="M247.88,299.98h-1.61l-0.88-2.09h-4.1l-0.89,2.09h-1.56l3.82-8.74h1.41L247.88,299.98z M243.33,293.07
			l-1.49,3.47h2.99L243.33,293.07z"/>
		<path class="st1" d="M254.93,299.98l-2.13-3.02h-1.91v3.02h-1.52v-8.67h3.87c2,0,3.22,1.05,3.22,2.75c0,1.44-0.85,2.3-2.07,2.64
			l2.34,3.28H254.93z M253.11,292.7h-2.22v2.91h2.23c1.09,0,1.78-0.57,1.78-1.46C254.91,293.19,254.24,292.7,253.11,292.7z"/>
		<path class="st1" d="M263.9,299.98l-2.13-3.02h-1.91v3.02h-1.52v-8.67h3.87c2,0,3.22,1.05,3.22,2.75c0,1.44-0.85,2.3-2.07,2.64
			l2.34,3.28H263.9z M262.07,292.7h-2.22v2.91h2.23c1.09,0,1.78-0.57,1.78-1.46C263.87,293.19,263.2,292.7,262.07,292.7z"/>
		<path class="st1" d="M271.43,300.13c-2.66,0-4.52-2.02-4.52-4.47s1.88-4.5,4.55-4.5s4.52,2.02,4.52,4.47
			S274.1,300.13,271.43,300.13z M271.43,292.56c-1.72,0-2.92,1.38-2.92,3.07c0,1.7,1.23,3.1,2.95,3.1c1.72,0,2.92-1.38,2.92-3.07
			S273.15,292.56,271.43,292.56z"/>
		<path class="st1" d="M277.83,291.31h1.52v7.29h4.56v1.39h-6.08V291.31z"/>
		<path class="st1" d="M285.5,291.31h1.52v7.29h4.56v1.39h-6.08V291.31z"/>
		<path class="st1" d="M296.82,300.13c-2.66,0-4.52-2.02-4.52-4.47s1.88-4.5,4.55-4.5s4.52,2.02,4.52,4.47
			S299.48,300.13,296.82,300.13z M296.82,292.56c-1.72,0-2.92,1.38-2.92,3.07c0,1.7,1.23,3.1,2.95,3.1c1.72,0,2.92-1.38,2.92-3.07
			S298.54,292.56,296.82,292.56z"/>
		<path class="st1" d="M310.96,300.13c-2.53,0-4.41-1.97-4.41-4.47c0-2.48,1.85-4.5,4.47-4.5c1.6,0,2.56,0.56,3.39,1.35l-0.98,1.13
			c-0.69-0.64-1.44-1.08-2.43-1.08c-1.66,0-2.86,1.36-2.86,3.07s1.2,3.1,2.86,3.1c1.07,0,1.75-0.43,2.49-1.13l0.98,0.99
			C313.57,299.54,312.58,300.13,310.96,300.13z"/>
		<path class="st1" d="M319.97,300.13c-2.66,0-4.52-2.02-4.52-4.47s1.88-4.5,4.55-4.5s4.52,2.02,4.52,4.47
			S322.63,300.13,319.97,300.13z M319.97,292.56c-1.72,0-2.92,1.38-2.92,3.07c0,1.7,1.23,3.1,2.95,3.1c1.72,0,2.92-1.38,2.92-3.07
			S321.69,292.56,319.97,292.56z"/>
		<path class="st1" d="M332.43,291.31h1.5v8.67h-1.28l-4.78-6.17v6.17h-1.5v-8.67h1.41l4.65,6V291.31z"/>
		<path class="st1" d="M191.04,306.04h-4.91v2.26h4.35v1.36h-4.35v2.33h4.97v1.36h-6.49v-8.67h6.43V306.04z"/>
		<path class="st1" d="M198.97,304.67h1.5v8.67h-1.28l-4.78-6.17v6.17h-1.5v-8.67h1.41l4.65,6V304.67z"/>
		<path class="st1" d="M209.16,306.06h-4.93v2.37h4.37v1.39h-4.37v3.53h-1.52v-8.67h6.46V306.06z"/>
		<path class="st1" d="M214.9,313.5c-2.66,0-4.52-2.02-4.52-4.47s1.88-4.5,4.55-4.5s4.52,2.02,4.52,4.47S217.56,313.5,214.9,313.5z
			 M214.9,305.93c-1.72,0-2.92,1.38-2.92,3.07c0,1.7,1.23,3.1,2.95,3.1c1.72,0,2.92-1.38,2.92-3.07S216.62,305.93,214.9,305.93z"/>
		<path class="st1" d="M230.09,312.52l-0.98,1.09l-1.04-0.93c-0.73,0.51-1.62,0.82-2.64,0.82c-2.66,0-4.52-2.02-4.52-4.47
			s1.88-4.5,4.55-4.5s4.52,2.02,4.52,4.47c0,0.99-0.32,1.92-0.88,2.68L230.09,312.52z M225.46,310.41l0.98-1.12l1.5,1.36
			c0.3-0.46,0.45-1.03,0.45-1.64c0-1.7-1.23-3.1-2.95-3.1c-1.72,0-2.92,1.38-2.92,3.07c0,1.7,1.23,3.1,2.95,3.1
			c0.57,0,1.08-0.16,1.49-0.42L225.46,310.41z"/>
		<path class="st1" d="M239.12,309.59c0,2.59-1.46,3.89-3.73,3.89c-2.25,0-3.69-1.3-3.69-3.82v-4.99h1.52v4.93
			c0,1.61,0.83,2.48,2.19,2.48c1.35,0,2.18-0.82,2.18-2.42v-4.99h1.52V309.59z"/>
		<path class="st1" d="M247.65,306.04h-4.91v2.26h4.35v1.36h-4.35v2.33h4.97v1.36h-6.49v-8.67h6.43V306.04z"/>
		<path class="st1" d="M256.91,313.35h-1.54v-7.26h-2.75v-1.41h7.04v1.41h-2.75V313.35z"/>
		<path class="st1" d="M267.7,306.04h-4.91v2.26h4.35v1.36h-4.35v2.33h4.97v1.36h-6.49v-8.67h6.43V306.04z"/>
		<path class="st1" d="M275.14,313.35l-2.13-3.02h-1.91v3.02h-1.52v-8.67h3.87c2,0,3.22,1.05,3.22,2.75c0,1.44-0.85,2.3-2.07,2.64
			l2.34,3.28H275.14z M273.32,306.06h-2.22v2.91h2.23c1.09,0,1.78-0.57,1.78-1.46C275.11,306.56,274.44,306.06,273.32,306.06z"/>
		<path class="st1" d="M284.1,313.35l-2.13-3.02h-1.91v3.02h-1.52v-8.67h3.87c2,0,3.22,1.05,3.22,2.75c0,1.44-0.85,2.3-2.07,2.64
			l2.34,3.28H284.1z M282.28,306.06h-2.22v2.91h2.23c1.09,0,1.78-0.57,1.78-1.46C284.07,306.56,283.41,306.06,282.28,306.06z"/>
		<path class="st1" d="M289.11,304.67v8.67h-1.52v-8.67H289.11z"/>
		<path class="st1" d="M295.09,313.35h-1.54v-7.26h-2.75v-1.41h7.04v1.41h-2.75V313.35z"/>
		<path class="st1" d="M303.13,313.5c-2.66,0-4.52-2.02-4.52-4.47s1.88-4.5,4.55-4.5s4.52,2.02,4.52,4.47S305.79,313.5,303.13,313.5
			z M303.13,305.93c-1.72,0-2.92,1.38-2.92,3.07c0,1.7,1.23,3.1,2.95,3.1c1.72,0,2.92-1.38,2.92-3.07S304.85,305.93,303.13,305.93z"
			/>
		<path class="st1" d="M315.09,313.35l-2.13-3.02h-1.91v3.02h-1.52v-8.67h3.87c2,0,3.22,1.05,3.22,2.75c0,1.44-0.85,2.3-2.07,2.64
			l2.34,3.28H315.09z M313.27,306.06h-2.22v2.91h2.23c1.09,0,1.78-0.57,1.78-1.46C315.06,306.56,314.39,306.06,313.27,306.06z"/>
		<path class="st1" d="M320.1,304.67v8.67h-1.52v-8.67H320.1z"/>
		<path class="st1" d="M330.72,313.35h-1.61l-0.88-2.09h-4.1l-0.89,2.09h-1.56l3.82-8.74h1.41L330.72,313.35z M326.17,306.43
			l-1.49,3.47h2.99L326.17,306.43z"/>
		<path class="st1" d="M332.21,304.67h1.52v7.29h4.56v1.39h-6.08V304.67z"/>
	</g>
	<line class="st2" x1="356.29" y1="276.27" x2="356.29" y2="312.86"/>
</g>
</svg>
